<svg xmlns="http://www.w3.org/2000/svg" viewBox="0 0 800 1000" width="800" height="1000" role="img" aria-label="Clay pot and wooden churn">
  <defs>
    <linearGradient id="bg2" x1="0" y1="0" x2="0" y2="1">
      <stop offset="0" stop-color="#EFE4CE"/><stop offset="1" stop-color="#DBCBAA"/>
    </linearGradient>
    <linearGradient id="clay" x1="0" y1="0" x2="1" y2="0">
      <stop offset="0" stop-color="#7C3A26"/><stop offset=".3" stop-color="#A0503A"/>
      <stop offset=".62" stop-color="#C0705A"/><stop offset="1" stop-color="#7A3824"/>
    </linearGradient>
    <linearGradient id="wood" x1="0" y1="0" x2="1" y2="0">
      <stop offset="0" stop-color="#6B4E2C"/><stop offset=".4" stop-color="#9C7645"/>
      <stop offset=".7" stop-color="#B08A55"/><stop offset="1" stop-color="#6B4E2C"/>
    </linearGradient>
    <radialGradient id="glow2" cx=".5" cy=".38" r=".55">
      <stop offset="0" stop-color="#FFF0C8" stop-opacity=".9"/><stop offset="1" stop-color="#FFF0C8" stop-opacity="0"/>
    </radialGradient>
  </defs>
  <rect width="800" height="1000" fill="url(#bg2)"/>
  <circle cx="400" cy="420" r="330" fill="url(#glow2)"/>
  <!-- floor line -->
  <rect y="792" width="800" height="208" fill="#C6B18A"/>
  <ellipse cx="400" cy="792" rx="300" ry="34" fill="#B29B72" opacity=".6"/>
  <!-- pot -->
  <path d="M400 792 c-118 0-186-66-186-150 0-78 46-128 60-156 h252 c14 28 60 78 60 156 0 84-68 150-186 150z" fill="url(#clay)"/>
  <ellipse cx="400" cy="486" rx="126" ry="26" fill="#5E2A1B"/>
  <ellipse cx="400" cy="484" rx="112" ry="20" fill="#F7EEDA"/>
  <!-- rim highlight -->
  <path d="M274 486 a126 26 0 0 1 252 0" fill="none" stroke="#D08C74" stroke-width="4" opacity=".6"/>
  <!-- decorative bands -->
  <g stroke="#EBD9B8" stroke-width="3" opacity=".38" fill="none">
    <path d="M228 596 q172 40 344 0"/><path d="M222 650 q178 44 356 0"/>
  </g>
  <!-- churn -->
  <rect x="388" y="120" width="24" height="380" rx="12" fill="url(#wood)"/>
  <rect x="330" y="112" width="140" height="20" rx="10" fill="url(#wood)"/>
  <g fill="url(#wood)">
    <path d="M400 508 l-56 -34 a66 66 0 0 1 112 0 z"/>
    <rect x="342" y="466" width="116" height="14" rx="7"/>
  </g>
  <!-- rope -->
  <path d="M340 210 q60 42 120 0 q-60 42 -120 0" fill="none" stroke="#C9B187" stroke-width="7" stroke-linecap="round"/>
  <path d="M340 250 q60 42 120 0 q-60 42 -120 0" fill="none" stroke="#C9B187" stroke-width="7" stroke-linecap="round"/>
  <!-- butter flecks -->
  <g fill="#FFF6DC" opacity=".85">
    <circle cx="362" cy="482" r="9"/><circle cx="432" cy="478" r="12"/><circle cx="400" cy="490" r="7"/>
    <circle cx="466" cy="486" r="6"/><circle cx="336" cy="488" r="5"/>
  </g>
</svg>
